<svg width="32" height="32" viewBox="0 0 32 32" fill="none" xmlns="http://www.w3.org/2000/svg">
  <rect width="32" height="32" rx="6" fill="#ff69b4"/>
  <!-- Elegant V with flowing curves -->
  <path d="M8 6C8 5 8.5 4.5 9.5 4.5C10.5 4.5 11 5 11 6V10C11 11 11.5 11.5 12.5 11.5C13.5 11.5 14 11 14 10V6C14 5 14.5 4.5 15.5 4.5C16.5 4.5 17 5 17 6V10C17 12 16 13.5 14.5 14C13 14.5 11.5 14 10.5 13C9.5 12 9 10.5 9 9V6Z" fill="#7a288a"/>
  <path d="M17 4.5C17.5 4 18.5 4 19.5 4.5C20.5 5 21 6 21 7V15C21 17 20 18.5 18.5 19C17 19.5 15.5 19 14.5 18C13.5 17 13 15.5 13 14V7C13 6 13.5 5 14.5 4.5C15.5 4 16.5 4 17 4.5Z" fill="#7a288a"/>
</svg>
