<svg width="512" height="512" viewBox="0 0 512 512" fill="none" xmlns="http://www.w3.org/2000/svg">
  <rect width="512" height="512" rx="96" fill="#F8BBD9"/>
  <!-- Elegant serif V -->
  <path d="M128 96C128 96 144 80 160 80C176 80 192 96 192 96V128C192 128 176 112 160 112C144 112 128 128 128 128V96Z" fill="#7A288A"/>
  <path d="M320 96C320 96 336 80 352 80C368 80 384 96 384 96V128C384 128 368 112 352 112C336 112 320 128 320 128V96Z" fill="#7A288A"/>
  <path d="M128 128C128 128 144 112 160 112C176 112 192 128 192 128L256 416L320 128C320 128 336 112 352 112C368 112 384 128 384 128L256 416L128 128Z" fill="#7A288A"/>
</svg>